<?xml version="1.0" encoding="UTF-8" standalone="no"?>
<!-- Created with Inkscape (http://www.inkscape.org/) -->

<svg
   xmlns:dc="http://purl.org/dc/elements/1.1/"
   xmlns:cc="http://creativecommons.org/ns#"
   xmlns:rdf="http://www.w3.org/1999/02/22-rdf-syntax-ns#"
   xmlns:svg="http://www.w3.org/2000/svg"
   xmlns="http://www.w3.org/2000/svg"
   xmlns:xlink="http://www.w3.org/1999/xlink"
   xmlns:sodipodi="http://sodipodi.sourceforge.net/DTD/sodipodi-0.dtd"
   xmlns:inkscape="http://www.inkscape.org/namespaces/inkscape"
   width="800"
   height="480"
   viewBox="0 0 211.66666 127"
   version="1.1"
   id="svg8"
   sodipodi:docname="template1.svg"
   inkscape:version="0.92.3 (2405546, 2018-03-11)"
   inkscape:export-filename="/home/cfreire/PycharmProjects/anacase/background.png"
   inkscape:export-xdpi="96"
   inkscape:export-ydpi="96">
  <defs
     id="defs2">
    <inkscape:path-effect
       effect="bspline"
       id="path-effect8283"
       is_visible="true"
       weight="33.333333"
       steps="2"
       helper_size="0"
       apply_no_weight="true"
       apply_with_weight="true"
       only_selected="false" />
    <inkscape:path-effect
       effect="bspline"
       id="path-effect8279"
       is_visible="true"
       weight="33.333333"
       steps="2"
       helper_size="0"
       apply_no_weight="true"
       apply_with_weight="true"
       only_selected="false" />
    <inkscape:path-effect
       effect="bspline"
       id="path-effect1510"
       is_visible="true"
       weight="33.333333"
       steps="2"
       helper_size="0"
       apply_no_weight="true"
       apply_with_weight="true"
       only_selected="false" />
    <inkscape:path-effect
       effect="bspline"
       id="path-effect1506"
       is_visible="true"
       weight="33.333333"
       steps="2"
       helper_size="0"
       apply_no_weight="true"
       apply_with_weight="true"
       only_selected="false" />
    <inkscape:path-effect
       only_selected="false"
       apply_with_weight="true"
       apply_no_weight="true"
       helper_size="0"
       steps="2"
       weight="33.333333"
       is_visible="true"
       id="path-effect1502"
       effect="bspline" />
    <inkscape:path-effect
       effect="bspline"
       id="path-effect1498"
       is_visible="true"
       weight="33.333333"
       steps="2"
       helper_size="0"
       apply_no_weight="true"
       apply_with_weight="true"
       only_selected="false" />
    <inkscape:path-effect
       only_selected="false"
       apply_with_weight="true"
       apply_no_weight="true"
       helper_size="0"
       steps="2"
       weight="33.333333"
       is_visible="true"
       id="path-effect1494"
       effect="bspline" />
    <inkscape:path-effect
       only_selected="false"
       apply_with_weight="true"
       apply_no_weight="true"
       helper_size="0"
       steps="2"
       weight="33.333333"
       is_visible="true"
       id="path-effect1490"
       effect="bspline" />
    <inkscape:path-effect
       effect="bspline"
       id="path-effect1486"
       is_visible="true"
       weight="33.333333"
       steps="2"
       helper_size="0"
       apply_no_weight="true"
       apply_with_weight="true"
       only_selected="false" />
    <inkscape:path-effect
       only_selected="false"
       apply_with_weight="true"
       apply_no_weight="true"
       helper_size="0"
       steps="2"
       weight="33.333333"
       is_visible="true"
       id="path-effect1482"
       effect="bspline" />
    <inkscape:path-effect
       effect="bspline"
       id="path-effect1478"
       is_visible="true"
       weight="33.333333"
       steps="2"
       helper_size="0"
       apply_no_weight="true"
       apply_with_weight="true"
       only_selected="false" />
    <inkscape:path-effect
       only_selected="false"
       apply_with_weight="true"
       apply_no_weight="true"
       helper_size="0"
       steps="2"
       weight="33.333333"
       is_visible="true"
       id="path-effect1474"
       effect="bspline" />
    <inkscape:path-effect
       effect="bspline"
       id="path-effect1470"
       is_visible="true"
       weight="33.333333"
       steps="2"
       helper_size="0"
       apply_no_weight="true"
       apply_with_weight="true"
       only_selected="false" />
    <inkscape:path-effect
       only_selected="false"
       apply_with_weight="true"
       apply_no_weight="true"
       helper_size="0"
       steps="2"
       weight="33.333333"
       is_visible="true"
       id="path-effect1466"
       effect="bspline" />
    <inkscape:path-effect
       effect="bspline"
       id="path-effect1462"
       is_visible="true"
       weight="33.333333"
       steps="2"
       helper_size="0"
       apply_no_weight="true"
       apply_with_weight="true"
       only_selected="false" />
    <inkscape:path-effect
       only_selected="false"
       apply_with_weight="true"
       apply_no_weight="true"
       helper_size="0"
       steps="2"
       weight="33.333333"
       is_visible="true"
       id="path-effect1458"
       effect="bspline" />
    <inkscape:path-effect
       only_selected="false"
       apply_with_weight="true"
       apply_no_weight="true"
       helper_size="0"
       steps="2"
       weight="33.333333"
       is_visible="true"
       id="path-effect1454"
       effect="bspline" />
    <inkscape:path-effect
       effect="bspline"
       id="path-effect1450"
       is_visible="true"
       weight="33.333333"
       steps="2"
       helper_size="0"
       apply_no_weight="true"
       apply_with_weight="true"
       only_selected="false" />
    <linearGradient
       inkscape:collect="always"
       id="linearGradient1124">
      <stop
         style="stop-color:#808080;stop-opacity:1;"
         offset="0"
         id="stop1120" />
      <stop
         style="stop-color:#808080;stop-opacity:0;"
         offset="1"
         id="stop1122" />
    </linearGradient>
    <linearGradient
       inkscape:collect="always"
       xlink:href="#linearGradient1124"
       id="linearGradient1126"
       x1="16.933332"
       y1="178.46664"
       x2="114.3"
       y2="246.19998"
       gradientUnits="userSpaceOnUse"
       gradientTransform="matrix(1.004717,0,0,1.0078864,-0.49921326,-1.8414656)" />
    <clipPath
       clipPathUnits="userSpaceOnUse"
       id="clipPath5588">
      <path
         d="m 403.195,300.975 c -1.834,0 -3.69,-0.05 -5.507,-0.429 v 0 c -1.661,-0.348 -3.291,-0.971 -4.854,-2.086 v 0 c -0.961,-0.684 -1.805,-1.509 -2.518,-2.472 v 0 c -0.233,-0.316 -0.452,-0.648 -0.655,-0.994 v 0 c -0.352,-0.601 -0.659,-1.244 -0.916,-1.932 v 0 c -0.192,-0.509 -0.352,-1.042 -0.486,-1.599 v 0 c -0.285,-1.199 -0.435,-2.506 -0.435,-3.926 v 0 -57.311 h 1.121 0.972 2.257 2.152 v 51.145 c 0,4.74 2.076,7.362 4.937,7.362 v 0 h 10.688 v 8.082 1.43 1.271 1.459 z"
         id="path5586"
         inkscape:connector-curvature="0" />
    </clipPath>
    <clipPath
       clipPathUnits="userSpaceOnUse"
       id="clipPath5988">
      <path
         d="m 409.952,300.975 v -1.459 -1.271 -1.43 -8.082 h 10.692 c 2.859,0 4.932,-2.622 4.932,-7.362 v 0 -51.145 h 2.153 2.26 0.969 1.122 v 57.311 c 0,1.42 -0.152,2.727 -0.437,3.926 v 0 c -0.134,0.557 -0.296,1.09 -0.484,1.599 v 0 c -0.257,0.688 -0.563,1.331 -0.917,1.932 v 0 c -0.201,0.346 -0.423,0.678 -0.655,0.994 v 0 c -0.711,0.963 -1.557,1.788 -2.516,2.472 v 0 c -1.564,1.115 -3.195,1.738 -4.855,2.086 v 0 c -1.82,0.379 -3.675,0.429 -5.506,0.429 v 0 z"
         id="path5986"
         inkscape:connector-curvature="0" />
    </clipPath>
    <clipPath
       clipPathUnits="userSpaceOnUse"
       id="clipPath6388">
      <path
         d="m 449.672,41.621 c 0,-4.357 3.533,-7.891 7.89,-7.891 v 0 c 4.356,0 7.889,3.534 7.889,7.891 v 0 c 0,4.356 -3.533,7.887 -7.889,7.887 v 0 c -4.357,0 -7.89,-3.531 -7.89,-7.887"
         id="path6386"
         inkscape:connector-curvature="0" />
    </clipPath>
    <radialGradient
       fx="0"
       fy="0"
       cx="0"
       cy="0"
       r="1"
       gradientUnits="userSpaceOnUse"
       gradientTransform="matrix(7.8886719,0,0,-7.8886719,457.5625,41.619141)"
       spreadMethod="pad"
       id="radialGradient6402">
      <stop
         style="stop-opacity:1;stop-color:#4d4d4f"
         offset="0"
         id="stop6394" />
      <stop
         style="stop-opacity:1;stop-color:#4d4d4f"
         offset="0.719101"
         id="stop6396" />
      <stop
         style="stop-opacity:1;stop-color:#626366"
         offset="0.898876"
         id="stop6398" />
      <stop
         style="stop-opacity:1;stop-color:#4d4d4f"
         offset="1"
         id="stop6400" />
    </radialGradient>
    <clipPath
       clipPathUnits="userSpaceOnUse"
       id="clipPath6412">
      <path
         d="m 452.133,41.621 c 0,-2.996 2.432,-5.428 5.429,-5.428 v 0 c 2.998,0 5.425,2.432 5.425,5.428 v 0 c 0,2.998 -2.427,5.43 -5.425,5.43 v 0 c -2.997,0 -5.429,-2.432 -5.429,-5.43"
         id="path6410"
         inkscape:connector-curvature="0" />
    </clipPath>
    <linearGradient
       x1="0"
       y1="0"
       x2="1"
       y2="0"
       gradientUnits="userSpaceOnUse"
       gradientTransform="matrix(7.6759753,-7.6759753,-7.6759753,-7.6759753,453.72363,45.458984)"
       spreadMethod="pad"
       id="linearGradient6422">
      <stop
         style="stop-opacity:1;stop-color:#626366"
         offset="0"
         id="stop6418" />
      <stop
         style="stop-opacity:1;stop-color:#808184"
         offset="1"
         id="stop6420" />
    </linearGradient>
    <clipPath
       clipPathUnits="userSpaceOnUse"
       id="clipPath6432">
      <path
         d="m 453.65,41.621 c 0,-2.161 1.75,-3.914 3.912,-3.914 v 0 c 2.16,0 3.914,1.753 3.914,3.914 v 0 c 0,2.16 -1.754,3.912 -3.914,3.912 v 0 c -2.162,0 -3.912,-1.752 -3.912,-3.912"
         id="path6430"
         inkscape:connector-curvature="0" />
    </clipPath>
    <linearGradient
       x1="0"
       y1="0"
       x2="1"
       y2="0"
       gradientUnits="userSpaceOnUse"
       gradientTransform="matrix(5.5332484,-5.5332484,-5.5332484,-5.5332484,454.7959,44.386719)"
       spreadMethod="pad"
       id="linearGradient6442">
      <stop
         style="stop-opacity:1;stop-color:#9c9ea1"
         offset="0"
         id="stop6438" />
      <stop
         style="stop-opacity:1;stop-color:#bbbdbf"
         offset="1"
         id="stop6440" />
    </linearGradient>
    <clipPath
       clipPathUnits="userSpaceOnUse"
       id="clipPath6452">
      <path
         d="m 355.735,41.621 c 0,-4.357 3.533,-7.891 7.89,-7.891 v 0 c 4.356,0 7.888,3.534 7.888,7.891 v 0 c 0,4.356 -3.532,7.887 -7.888,7.887 v 0 c -4.357,0 -7.89,-3.531 -7.89,-7.887"
         id="path6450"
         inkscape:connector-curvature="0" />
    </clipPath>
    <radialGradient
       fx="0"
       fy="0"
       cx="0"
       cy="0"
       r="1"
       gradientUnits="userSpaceOnUse"
       gradientTransform="matrix(7.8886719,0,0,-7.8886719,363.62402,41.619141)"
       spreadMethod="pad"
       id="radialGradient6466">
      <stop
         style="stop-opacity:1;stop-color:#4d4d4f"
         offset="0"
         id="stop6458" />
      <stop
         style="stop-opacity:1;stop-color:#4d4d4f"
         offset="0.719101"
         id="stop6460" />
      <stop
         style="stop-opacity:1;stop-color:#626366"
         offset="0.898876"
         id="stop6462" />
      <stop
         style="stop-opacity:1;stop-color:#4d4d4f"
         offset="1"
         id="stop6464" />
    </radialGradient>
    <clipPath
       clipPathUnits="userSpaceOnUse"
       id="clipPath6476">
      <path
         d="m 358.196,41.621 c 0,-2.996 2.432,-5.428 5.429,-5.428 v 0 c 2.998,0 5.426,2.432 5.426,5.428 v 0 c 0,2.998 -2.428,5.43 -5.426,5.43 v 0 c -2.997,0 -5.429,-2.432 -5.429,-5.43"
         id="path6474"
         inkscape:connector-curvature="0" />
    </clipPath>
    <linearGradient
       x1="0"
       y1="0"
       x2="1"
       y2="0"
       gradientUnits="userSpaceOnUse"
       gradientTransform="matrix(7.6759753,-7.6759753,-7.6759753,-7.6759753,359.7876,45.458984)"
       spreadMethod="pad"
       id="linearGradient6486">
      <stop
         style="stop-opacity:1;stop-color:#626366"
         offset="0"
         id="stop6482" />
      <stop
         style="stop-opacity:1;stop-color:#808184"
         offset="1"
         id="stop6484" />
    </linearGradient>
    <clipPath
       clipPathUnits="userSpaceOnUse"
       id="clipPath6496">
      <path
         d="m 359.712,41.621 c 0,-2.161 1.752,-3.914 3.913,-3.914 v 0 c 2.159,0 3.913,1.753 3.913,3.914 v 0 c 0,2.16 -1.754,3.912 -3.913,3.912 v 0 c -2.161,0 -3.913,-1.752 -3.913,-3.912"
         id="path6494"
         inkscape:connector-curvature="0" />
    </clipPath>
    <linearGradient
       x1="0"
       y1="0"
       x2="1"
       y2="0"
       gradientUnits="userSpaceOnUse"
       gradientTransform="matrix(5.5332484,-5.5332484,-5.5332484,-5.5332484,360.8584,44.386719)"
       spreadMethod="pad"
       id="linearGradient6506">
      <stop
         style="stop-opacity:1;stop-color:#9c9ea1"
         offset="0"
         id="stop6502" />
      <stop
         style="stop-opacity:1;stop-color:#bbbdbf"
         offset="1"
         id="stop6504" />
    </linearGradient>
    <clipPath
       clipPathUnits="userSpaceOnUse"
       id="clipPath6516">
      <path
         d="M 77.102,15.758 H 771.103 V 587.757 H 77.102 Z"
         id="path6514"
         inkscape:connector-curvature="0" />
    </clipPath>
    <clipPath
       clipPathUnits="userSpaceOnUse"
       id="clipPath6528">
      <path
         d="m 345.625,206.248 c -0.49,0 -1.068,-0.018 -1.572,-0.071 v 0 c -0.264,-0.027 -0.519,-0.079 -0.76,-0.177 v 0 c -0.239,-0.095 -0.467,-0.237 -0.67,-0.442 v 0 c -0.609,-0.606 -0.63,-1.344 -0.63,-2.15 v 0 c 0,-2.965 0.001,-5.947 0.001,-8.929 v 0 c 0,-0.552 0.262,-1.052 0.629,-1.418 v 0 c 0.203,-0.205 0.431,-0.344 0.67,-0.442 v 0 c 0.241,-0.097 0.496,-0.15 0.76,-0.177 v 0 c 0.504,-0.052 1.067,-0.047 1.579,-0.047 v 0 c 1.103,0 2.38,-0.194 3.238,0.666 v 0 c 0.369,0.366 0.606,0.866 0.631,1.416 v 0 c 0.132,2.965 0,5.966 0,8.931 v 0 c 0,0.806 -0.023,1.545 -0.631,2.15 v 0 c -0.615,0.616 -1.447,0.703 -2.276,0.703 v 0 c -0.328,0 -0.656,-0.013 -0.969,-0.013"
         id="path6526"
         inkscape:connector-curvature="0" />
    </clipPath>
    <clipPath
       clipPathUnits="userSpaceOnUse"
       id="clipPath6756">
      <path
         d="M 77.102,15.758 H 771.103 V 587.757 H 77.102 Z"
         id="path6754"
         inkscape:connector-curvature="0" />
    </clipPath>
    <clipPath
       clipPathUnits="userSpaceOnUse"
       id="clipPath6768">
      <path
         d="m 345.625,89.482 c -0.49,0 -1.068,-0.017 -1.572,-0.071 v 0 c -0.264,-0.027 -0.519,-0.079 -0.76,-0.177 v 0 c -0.239,-0.095 -0.467,-0.237 -0.67,-0.441 v 0 c -0.609,-0.606 -0.63,-1.345 -0.63,-2.149 v 0 c 0,-2.967 0.001,-5.95 0.001,-8.931 v 0 c 0,-0.554 0.262,-1.051 0.629,-1.419 v 0 c 0.203,-0.203 0.431,-0.344 0.67,-0.441 v 0 c 0.241,-0.096 0.496,-0.149 0.76,-0.177 v 0 c 0.504,-0.052 1.067,-0.048 1.579,-0.048 v 0 c 1.103,0 2.38,-0.192 3.238,0.666 v 0 c 0.369,0.368 0.606,0.867 0.631,1.419 v 0 c 0.132,2.963 0,5.962 0,8.931 v 0 c 0,0.804 -0.023,1.543 -0.631,2.149 v 0 c -0.615,0.616 -1.447,0.703 -2.276,0.703 v 0 c -0.328,0 -0.656,-0.014 -0.969,-0.014"
         id="path6766"
         inkscape:connector-curvature="0" />
    </clipPath>
    <clipPath
       clipPathUnits="userSpaceOnUse"
       id="clipPath6996">
      <path
         d="M 77.102,15.758 H 771.103 V 587.757 H 77.102 Z"
         id="path6994"
         inkscape:connector-curvature="0" />
    </clipPath>
    <clipPath
       clipPathUnits="userSpaceOnUse"
       id="clipPath7008">
      <path
         d="m 429.148,232.969 h 9.91 c 0,0.819 -3.441,1.26 -9.91,1.26 v 0 z"
         id="path7006"
         inkscape:connector-curvature="0" />
    </clipPath>
    <linearGradient
       x1="0"
       y1="0"
       x2="1"
       y2="0"
       gradientUnits="userSpaceOnUse"
       gradientTransform="matrix(-1e-7,1.2607422,1.2607422,1e-7,434.10254,232.96875)"
       spreadMethod="pad"
       id="linearGradient7024">
      <stop
         style="stop-opacity:1;stop-color:#6d6e70"
         offset="0"
         id="stop7014" />
      <stop
         style="stop-opacity:1;stop-color:#6d6e70"
         offset="0.0561798"
         id="stop7016" />
      <stop
         style="stop-opacity:1;stop-color:#bbbdbf"
         offset="0.668539"
         id="stop7018" />
      <stop
         style="stop-opacity:1;stop-color:#626366"
         offset="0.94382"
         id="stop7020" />
      <stop
         style="stop-opacity:1;stop-color:#626366"
         offset="1"
         id="stop7022" />
    </linearGradient>
    <clipPath
       clipPathUnits="userSpaceOnUse"
       id="clipPath7034">
      <path
         d="M 77.102,15.758 H 771.103 V 587.757 H 77.102 Z"
         id="path7032"
         inkscape:connector-curvature="0" />
    </clipPath>
    <clipPath
       clipPathUnits="userSpaceOnUse"
       id="clipPath7046">
      <path
         d="m 392.086,234.337 c -10.02,0 -10.02,-1.03 -10.02,-1.368 v 0 l 10.126,0.001 v 1.367 z"
         id="path7044"
         inkscape:connector-curvature="0" />
    </clipPath>
    <linearGradient
       x1="0"
       y1="0"
       x2="1"
       y2="0"
       gradientUnits="userSpaceOnUse"
       gradientTransform="matrix(-1e-7,1.1689405,1.1689405,1e-7,387.12939,233.06836)"
       spreadMethod="pad"
       id="linearGradient7062">
      <stop
         style="stop-opacity:1;stop-color:#6d6e70"
         offset="0"
         id="stop7052" />
      <stop
         style="stop-opacity:1;stop-color:#6d6e70"
         offset="0.0561798"
         id="stop7054" />
      <stop
         style="stop-opacity:1;stop-color:#bbbdbf"
         offset="0.668539"
         id="stop7056" />
      <stop
         style="stop-opacity:1;stop-color:#626366"
         offset="0.94382"
         id="stop7058" />
      <stop
         style="stop-opacity:1;stop-color:#626366"
         offset="1"
         id="stop7060" />
    </linearGradient>
    <clipPath
       clipPathUnits="userSpaceOnUse"
       id="clipPath7072">
      <path
         d="M 77.102,15.758 H 771.103 V 587.757 H 77.102 Z"
         id="path7070"
         inkscape:connector-curvature="0" />
    </clipPath>
    <clipPath
       clipPathUnits="userSpaceOnUse"
       id="clipPath7084">
      <path
         d="m 392.335,236.203 c -0.712,-0.362 -2.336,-0.869 -1.774,-1.958 v 0 c 0.089,-0.171 0.238,-0.385 0.419,-0.615 v 0 c 0.623,-0.804 1.61,-1.792 1.61,-1.792 v 0 c 4.131,2.582 10.665,4.251 18.026,4.251 v 0 c 7.359,0 13.896,-1.669 18.022,-4.251 v 0 c 0,0 0.987,0.988 1.616,1.792 v 0 c 0.18,0.23 0.325,0.444 0.417,0.615 v 0 c 0.559,1.089 -1.062,1.596 -1.773,1.958 v 0 c -4.65,2.364 -10.991,3.75 -18.282,3.75 v 0 c -7.293,0 -13.633,-1.386 -18.281,-3.75"
         id="path7082"
         inkscape:connector-curvature="0" />
    </clipPath>
    <clipPath
       clipPathUnits="userSpaceOnUse"
       id="clipPath7234">
      <path
         d="M 77.102,15.758 H 771.103 V 587.757 H 77.102 Z"
         id="path7232"
         inkscape:connector-curvature="0" />
    </clipPath>
    <clipPath
       clipPathUnits="userSpaceOnUse"
       id="clipPath7246">
      <path
         d="m 473.856,169.979 c -0.171,-0.09 -0.384,-0.239 -0.616,-0.418 v 0 c -0.799,-0.626 -1.792,-1.613 -1.792,-1.613 v 0 c 2.586,-4.127 4.253,-10.664 4.253,-18.023 v 0 c 0,-7.361 -1.667,-13.899 -4.253,-18.027 v 0 c 0,0 0.993,-0.986 1.792,-1.611 v 0 c 0.232,-0.179 0.445,-0.33 0.616,-0.418 v 0 c 1.091,-0.562 1.598,1.063 1.959,1.774 v 0 c 2.364,4.647 3.747,10.988 3.747,18.282 v 0 c 0,7.29 -1.383,13.632 -3.747,18.28 v 0 c -0.31,0.608 -0.726,1.89 -1.527,1.89 v 0 c -0.133,0 -0.276,-0.036 -0.432,-0.116"
         id="path7244"
         inkscape:connector-curvature="0" />
    </clipPath>
    <clipPath
       clipPathUnits="userSpaceOnUse"
       id="clipPath7396">
      <path
         d="m 358.287,232.969 c -3.037,0 -5.958,-0.953 -8.318,-2.85 v 0 c -0.171,-0.137 -0.34,-0.28 -0.504,-0.427 v 0 c -0.182,-0.165 -0.363,-0.332 -0.535,-0.506 v 0 c -0.179,-0.18 -0.353,-0.366 -0.522,-0.554 v 0 c -2.249,-2.526 -3.262,-5.685 -3.262,-9.031 v 0 -163.017 c 0,-3.549 1.252,-6.92 3.784,-9.449 v 0 c 0.172,-0.176 0.353,-0.344 0.535,-0.508 v 0 c 0.164,-0.148 0.333,-0.291 0.504,-0.428 v 0 c 2.36,-1.898 5.281,-2.851 8.318,-2.851 v 0 h 104.931 c 0.158,0 0.317,0.003 0.474,0.011 v 0 c 2.863,0.102 5.493,1.152 7.589,2.843 v 0 c 0.162,0.13 0.32,0.265 0.474,0.402 v 0 c 0.192,0.169 0.379,0.347 0.561,0.531 v 0 c 2.53,2.529 3.785,5.9 3.785,9.449 v 0 163.017 c 0,3.346 -1.012,6.505 -3.265,9.031 v 0 c -0.167,0.188 -0.339,0.374 -0.52,0.554 v 0 c -0.182,0.18 -0.369,0.357 -0.561,0.527 v 0 c -0.154,0.139 -0.312,0.271 -0.474,0.403 v 0 c -2.096,1.69 -4.726,2.74 -7.589,2.844 v 0 c -0.157,0.006 -0.316,0.009 -0.474,0.009 v 0 z"
         id="path7394"
         inkscape:connector-curvature="0" />
    </clipPath>
    <clipPath
       clipPathUnits="userSpaceOnUse"
       id="clipPath8008">
      <path
         d="m 358.708,231.896 c -1.381,0 -2.725,-0.168 -3.999,-0.529 v 0 c -0.861,-0.244 -1.687,-0.578 -2.472,-1.009 v 0 c -0.915,-0.505 -1.773,-1.14 -2.556,-1.924 v 0 c -0.571,-0.569 -1.083,-1.198 -1.526,-1.873 v 0 c -0.885,-1.343 -1.503,-2.88 -1.779,-4.53 v 0 c -0.277,-1.681 -0.158,-3.426 -0.158,-5.122 v 0 -160.657 c 0,-0.947 0.332,-1.641 0.952,-2.14 v 0 c 1.885,-1.532 6.415,-1.319 12.206,-1.319 v 0 c 10.301,0 13.256,0.394 15.252,-6.338 v 0 c 0.206,-0.689 0.383,-1.225 0.574,-2.033 v 0 h 1.792 1.898 2.126 59.365 2.255 1.715 1.691 c 0.188,0.808 0.342,1.338 0.512,2.033 v 0 c 1.685,6.891 5.01,6.338 15.31,6.338 v 0 c 5.794,0 10.324,-0.213 12.209,1.319 v 0 c 0.619,0.499 0.951,1.193 0.951,2.14 v 0 160.657 c 0,1.696 0.118,3.441 -0.161,5.122 v 0 c -0.272,1.65 -0.889,3.187 -1.773,4.53 v 0 c -0.446,0.675 -0.958,1.304 -1.528,1.873 v 0 c -0.702,0.701 -1.47,1.292 -2.292,1.777 v 0 c -0.836,0.491 -1.724,0.874 -2.653,1.148 v 0 c -1.215,0.359 -2.498,0.537 -3.81,0.537 v 0 z"
         id="path8006"
         inkscape:connector-curvature="0" />
    </clipPath>
  </defs>
  <sodipodi:namedview
     id="base"
     pagecolor="#000000"
     bordercolor="#666666"
     borderopacity="1.0"
     inkscape:pageopacity="0"
     inkscape:pageshadow="2"
     inkscape:zoom="1.60375"
     inkscape:cx="399.37646"
     inkscape:cy="240"
     inkscape:document-units="px"
     inkscape:current-layer="layer2"
     showgrid="true"
     units="px"
     inkscape:window-width="1920"
     inkscape:window-height="1025"
     inkscape:window-x="0"
     inkscape:window-y="1051"
     inkscape:window-maximized="1"
     inkscape:measure-start="64,480"
     inkscape:measure-end="64,384"
     showguides="true"
     inkscape:guide-bbox="true">
    <inkscape:grid
       type="xygrid"
       id="grid10"
       spacingx="2.1166666"
       spacingy="2.1166666"
       empspacing="8" />
    <sodipodi:guide
       position="118.53333,29.633332"
       orientation="0,1"
       id="guide1512"
       inkscape:locked="false" />
  </sodipodi:namedview>
  <metadata
     id="metadata5">
    <rdf:RDF>
      <cc:Work
         rdf:about="">
        <dc:format>image/svg+xml</dc:format>
        <dc:type
           rdf:resource="http://purl.org/dc/dcmitype/StillImage" />
        <dc:title />
      </cc:Work>
    </rdf:RDF>
  </metadata>
  <g
     inkscape:label="Layer 1"
     inkscape:groupmode="layer"
     id="layer1"
     transform="translate(0,-169.99998)">
    <text
       xml:space="preserve"
       style="font-style:normal;font-weight:normal;font-size:10.58333302px;line-height:1.25;font-family:Ubuntu;letter-spacing:0px;word-spacing:0px;fill:#ffffff;fill-opacity:1;stroke:none;stroke-width:0.26458332;-inkscape-font-specification:Ubuntu;font-stretch:normal;font-variant:normal;"
       x="173.56667"
       y="189.04999"
       id="text1100"><tspan
         sodipodi:role="line"
         id="tspan1098"
         x="173.56667"
         y="198.41376"
         style="stroke-width:0.26458332;stroke:none;fill:#ffffff;-inkscape-font-specification:Uroob;font-family:Uroob;font-weight:normal;font-style:normal;font-stretch:normal;font-variant:normal;" /></text>
    <text
       xml:space="preserve"
       style="font-style:normal;font-weight:normal;font-size:10.58333302px;line-height:1.25;font-family:Ubuntu;letter-spacing:0px;word-spacing:0px;fill:#000000;fill-opacity:1;stroke:none;stroke-width:0.26458332;-inkscape-font-specification:Ubuntu;font-stretch:normal;font-variant:normal;"
       x="175.68333"
       y="189.04999"
       id="text1104"><tspan
         sodipodi:role="line"
         id="tspan1102"
         x="175.68333"
         y="198.41376"
         style="stroke-width:0.26458332;-inkscape-font-specification:Uroob;font-family:Uroob;font-weight:normal;font-style:normal;font-stretch:normal;font-variant:normal;" /></text>
  </g>
  <g
     inkscape:groupmode="layer"
     id="layer2"
     inkscape:label="decorator">
    <g
       transform="matrix(1.0392035,0,0,1.0671052,-4.1490462,-185.66938)"
       id="g887"
       style="stroke:#008066;stroke-width:0.47643387;stroke-opacity:1">
      <path
         sodipodi:nodetypes="cc"
         inkscape:connector-curvature="0"
         id="path16"
         d="m 8.4666663,292.76664 194.7333237,1e-5"
         style="fill:none;stroke:#008066;stroke-width:0.47643387;stroke-linecap:round;stroke-linejoin:miter;stroke-miterlimit:4;stroke-dasharray:none;stroke-opacity:1" />
      <path
         inkscape:connector-curvature="0"
         id="path20"
         d="m 203.19999,292.76665 4.23334,-4.23334 -1e-5,-110.06666"
         style="fill:none;stroke:#008066;stroke-width:0.47643387;stroke-linecap:round;stroke-linejoin:miter;stroke-miterlimit:4;stroke-dasharray:none;stroke-opacity:1" />
      <path
         inkscape:connector-curvature="0"
         id="path22"
         d="m 207.43333,178.46665 -4.23334,-4.23333"
         style="fill:none;stroke:#008066;stroke-width:0.47643387;stroke-linecap:round;stroke-linejoin:miter;stroke-miterlimit:4;stroke-dasharray:none;stroke-opacity:1" />
      <path
         sodipodi:nodetypes="ccc"
         inkscape:connector-curvature="0"
         id="path24"
         d="M 203.19999,174.23332 H 84.666663 l -13.459202,13.64511"
         style="fill:none;stroke:#008066;stroke-width:0.47643387;stroke-linecap:round;stroke-linejoin:miter;stroke-miterlimit:4;stroke-dasharray:none;stroke-opacity:1" />
      <path
         sodipodi:nodetypes="cc"
         inkscape:connector-curvature="0"
         id="path28"
         d="m 71.207461,187.87843 -63.1413033,0"
         style="fill:none;stroke:#008066;stroke-width:0.47643387;stroke-linecap:round;stroke-linejoin:miter;stroke-miterlimit:4;stroke-dasharray:none;stroke-opacity:1" />
      <path
         sodipodi:nodetypes="ccc"
         inkscape:connector-curvature="0"
         id="path30"
         d="m 8.0661577,187.87843 -3.8328247,3.28822 1e-7,97.36666"
         style="fill:none;stroke:#008066;stroke-width:0.47643387;stroke-linecap:round;stroke-linejoin:miter;stroke-miterlimit:4;stroke-dasharray:none;stroke-opacity:1" />
      <path
         inkscape:connector-curvature="0"
         id="path32"
         d="m 4.233333,288.53331 4.2333333,4.23334"
         style="fill:none;stroke:#008066;stroke-width:0.47643387;stroke-linecap:round;stroke-linejoin:miter;stroke-miterlimit:4;stroke-dasharray:none;stroke-opacity:1" />
    </g>
    <g
       id="g877"
       transform="matrix(1.0364002,0,0,1.0658471,-6.0424707,-189.77535)"
       style="stroke:#008066;stroke-width:0.47572809;stroke-opacity:1">
      <path
         inkscape:connector-curvature="0"
         id="path843"
         d="m 169.33333,184.81665 h 33.86666"
         style="fill:none;stroke:#008066;stroke-width:0.47572809;stroke-linecap:round;stroke-linejoin:miter;stroke-opacity:1" />
      <path
         inkscape:connector-curvature="0"
         id="path851"
         d="m 203.19999,184.81665 v 10.58333 h -12.7"
         style="fill:none;stroke:#008066;stroke-width:0.47572809;stroke-linecap:round;stroke-linejoin:miter;stroke-opacity:1" />
      <path
         inkscape:connector-curvature="0"
         id="path857"
         d="m 190.49999,195.39998 -4.23333,4.23334"
         style="fill:none;stroke:#008066;stroke-width:0.47572809;stroke-linecap:round;stroke-linejoin:miter;stroke-opacity:1" />
      <path
         inkscape:connector-curvature="0"
         id="path859"
         d="m 186.26666,199.63332 h -12.7"
         style="fill:none;stroke:#008066;stroke-width:0.47572809;stroke-linecap:round;stroke-linejoin:miter;stroke-opacity:1" />
      <path
         inkscape:connector-curvature="0"
         id="path865"
         d="m 173.56666,199.63332 -4.23333,-4.23334"
         style="fill:none;stroke:#008066;stroke-width:0.47572809;stroke-linecap:round;stroke-linejoin:miter;stroke-opacity:1" />
      <path
         inkscape:connector-curvature="0"
         id="path869"
         d="M 169.33333,195.39998 V 184.81665"
         style="fill:none;stroke:#008066;stroke-width:0.47572809;stroke-linecap:round;stroke-linejoin:miter;stroke-opacity:1" />
    </g>
    <g
       transform="matrix(1.0364002,0,0,1.0658471,-6.0424707,-169.98181)"
       id="g907"
       style="stroke:#008066;stroke-width:0.47572809;stroke-opacity:1">
      <path
         style="fill:none;stroke:#008066;stroke-width:0.47572809;stroke-linecap:round;stroke-linejoin:miter;stroke-opacity:1"
         d="m 169.33333,184.81665 h 33.86666"
         id="path895"
         inkscape:connector-curvature="0" />
      <path
         style="fill:none;stroke:#008066;stroke-width:0.47572809;stroke-linecap:round;stroke-linejoin:miter;stroke-opacity:1"
         d="m 203.19999,184.81665 v 10.58333 h -12.7"
         id="path897"
         inkscape:connector-curvature="0" />
      <path
         style="fill:none;stroke:#008066;stroke-width:0.47572809;stroke-linecap:round;stroke-linejoin:miter;stroke-opacity:1"
         d="m 190.49999,195.39998 -4.23333,4.23334"
         id="path899"
         inkscape:connector-curvature="0" />
      <path
         style="fill:none;stroke:#008066;stroke-width:0.47572809;stroke-linecap:round;stroke-linejoin:miter;stroke-opacity:1"
         d="m 186.26666,199.63332 h -12.7"
         id="path901"
         inkscape:connector-curvature="0" />
      <path
         style="fill:none;stroke:#008066;stroke-width:0.47572809;stroke-linecap:round;stroke-linejoin:miter;stroke-opacity:1"
         d="m 173.56666,199.63332 -4.23333,-4.23334"
         id="path903"
         inkscape:connector-curvature="0" />
      <path
         style="fill:none;stroke:#008066;stroke-width:0.47572809;stroke-linecap:round;stroke-linejoin:miter;stroke-opacity:1"
         d="M 169.33333,195.39998 V 184.81665"
         id="path905"
         inkscape:connector-curvature="0" />
    </g>
    <g
       id="g921"
       transform="matrix(1.0364002,0,0,1.0658471,-7.3965167,-148.99984)"
       style="stroke:#008066;stroke-width:0.47572809;stroke-opacity:1">
      <path
         inkscape:connector-curvature="0"
         id="path909"
         d="m 169.33333,184.81665 h 33.86666"
         style="fill:none;stroke:#008066;stroke-width:0.47572809;stroke-linecap:round;stroke-linejoin:miter;stroke-opacity:1" />
      <path
         inkscape:connector-curvature="0"
         id="path911"
         d="m 203.19999,184.81665 v 10.58333 h -12.7"
         style="fill:none;stroke:#008066;stroke-width:0.47572809;stroke-linecap:round;stroke-linejoin:miter;stroke-opacity:1" />
      <path
         inkscape:connector-curvature="0"
         id="path913"
         d="m 190.49999,195.39998 -4.23333,4.23334"
         style="fill:none;stroke:#008066;stroke-width:0.47572809;stroke-linecap:round;stroke-linejoin:miter;stroke-opacity:1" />
      <path
         inkscape:connector-curvature="0"
         id="path915"
         d="m 186.26666,199.63332 h -12.7"
         style="fill:none;stroke:#008066;stroke-width:0.47572809;stroke-linecap:round;stroke-linejoin:miter;stroke-opacity:1" />
      <path
         inkscape:connector-curvature="0"
         id="path917"
         d="m 173.56666,199.63332 -4.23333,-4.23334"
         style="fill:none;stroke:#008066;stroke-width:0.47572809;stroke-linecap:round;stroke-linejoin:miter;stroke-opacity:1" />
      <path
         inkscape:connector-curvature="0"
         id="path919"
         d="M 169.33333,195.39998 V 184.81665"
         style="fill:none;stroke:#008066;stroke-width:0.47572809;stroke-linecap:round;stroke-linejoin:miter;stroke-opacity:1" />
    </g>
    <g
       transform="matrix(1.0364002,0,0,1.0658471,-6.0424707,-130.39479)"
       id="g935"
       style="stroke:#008066;stroke-width:0.47572809;stroke-opacity:1">
      <path
         style="fill:none;stroke:#008066;stroke-width:0.47572809;stroke-linecap:round;stroke-linejoin:miter;stroke-opacity:1"
         d="m 169.33333,184.81665 h 33.86666"
         id="path923"
         inkscape:connector-curvature="0" />
      <path
         style="fill:none;stroke:#008066;stroke-width:0.47572809;stroke-linecap:round;stroke-linejoin:miter;stroke-opacity:1"
         d="m 203.19999,184.81665 v 10.58333 h -12.7"
         id="path925"
         inkscape:connector-curvature="0" />
      <path
         style="fill:none;stroke:#008066;stroke-width:0.47572809;stroke-linecap:round;stroke-linejoin:miter;stroke-opacity:1"
         d="m 190.49999,195.39998 -4.23333,4.23334"
         id="path927"
         inkscape:connector-curvature="0" />
      <path
         style="fill:none;stroke:#008066;stroke-width:0.47572809;stroke-linecap:round;stroke-linejoin:miter;stroke-opacity:1"
         d="m 186.26666,199.63332 h -12.7"
         id="path929"
         inkscape:connector-curvature="0" />
      <path
         style="fill:none;stroke:#008066;stroke-width:0.47572809;stroke-linecap:round;stroke-linejoin:miter;stroke-opacity:1"
         d="m 173.56666,199.63332 -4.23333,-4.23334"
         id="path931"
         inkscape:connector-curvature="0" />
      <path
         style="fill:none;stroke:#008066;stroke-width:0.47572809;stroke-linecap:round;stroke-linejoin:miter;stroke-opacity:1"
         d="M 169.33333,195.39998 V 184.81665"
         id="path933"
         inkscape:connector-curvature="0" />
    </g>
    <g
       id="g949"
       transform="matrix(1.0364002,0,0,1.0658471,-6.0424707,-110.60126)"
       style="stroke:#008066;stroke-width:0.47572809;stroke-opacity:1">
      <path
         inkscape:connector-curvature="0"
         id="path937"
         d="m 169.33333,184.81665 h 33.86666"
         style="fill:none;stroke:#008066;stroke-width:0.47572809;stroke-linecap:round;stroke-linejoin:miter;stroke-opacity:1" />
      <path
         inkscape:connector-curvature="0"
         id="path939"
         d="m 203.19999,184.81665 v 10.58333 h -12.7"
         style="fill:none;stroke:#008066;stroke-width:0.47572809;stroke-linecap:round;stroke-linejoin:miter;stroke-opacity:1" />
      <path
         inkscape:connector-curvature="0"
         id="path941"
         d="m 190.49999,195.39998 -4.23333,4.23334"
         style="fill:none;stroke:#008066;stroke-width:0.47572809;stroke-linecap:round;stroke-linejoin:miter;stroke-opacity:1" />
      <path
         inkscape:connector-curvature="0"
         id="path943"
         d="m 186.26666,199.63332 h -12.7"
         style="fill:none;stroke:#008066;stroke-width:0.47572809;stroke-linecap:round;stroke-linejoin:miter;stroke-opacity:1" />
      <path
         inkscape:connector-curvature="0"
         id="path945"
         d="m 173.56666,199.63332 -4.23333,-4.23334"
         style="fill:none;stroke:#008066;stroke-width:0.47572809;stroke-linecap:round;stroke-linejoin:miter;stroke-opacity:1" />
      <path
         inkscape:connector-curvature="0"
         id="path947"
         d="M 169.33333,195.39998 V 184.81665"
         style="fill:none;stroke:#008066;stroke-width:0.47572809;stroke-linecap:round;stroke-linejoin:miter;stroke-opacity:1" />
    </g>
    <path
       sodipodi:nodetypes="ccccc"
       inkscape:connector-curvature="0"
       id="path1000"
       d="M 2.1166666,93.133322 -9.6666656e-8,91.016649 v 14.816681 2.11665 L 2.1166666,105.83333"
       style="fill:#008066;stroke:none;stroke-width:0.47643444;stroke-linecap:butt;stroke-linejoin:miter;stroke-opacity:1" />
    <circle
       style="fill:none;fill-opacity:1;stroke:#008066;stroke-width:0.5;stroke-linecap:round;stroke-miterlimit:4;stroke-dasharray:none;stroke-opacity:1"
       id="path1421"
       cx="10.583333"
       cy="6.3500037"
       r="4.2333331" />
    <path
       id="circle1423"
       style="fill:none;fill-opacity:1;stroke:#008066;stroke-width:0.25;stroke-linecap:round;stroke-miterlimit:4;stroke-dasharray:none;stroke-opacity:1"
       sodipodi:type="arc"
       sodipodi:cx="10.583333"
       sodipodi:cy="6.3500037"
       sodipodi:rx="3.3291211"
       sodipodi:ry="3.3291211"
       sodipodi:start="1.5707963"
       sodipodi:end="0"
       d="M 10.583333,9.6791248 A 3.3291211,3.3291211 0 0 1 7.5076262,7.6240033 3.3291211,3.3291211 0 0 1 8.2292889,3.9959596 3.3291211,3.3291211 0 0 1 11.857332,3.2742969 3.3291211,3.3291211 0 0 1 13.912454,6.3500037"
       sodipodi:open="true" />
    <path
       style="fill:#002b22;fill-opacity:1;stroke:none;stroke-width:0.08282421;stroke-linecap:round;stroke-miterlimit:4;stroke-dasharray:none;stroke-opacity:1"
       d="m 8.4666663,110.06667 4.2333327,-4.23334 192.616651,1e-5 1e-5,10.58333 -4.23334,4.23333 -192.61665,10e-6 z"
       id="rect1425"
       inkscape:connector-curvature="0"
       sodipodi:nodetypes="ccccccc" />
    <text
       xml:space="preserve"
       style="font-style:normal;font-weight:normal;font-size:10.58333302px;line-height:1.25;font-family:sans-serif;letter-spacing:0px;word-spacing:0px;fill:#000000;fill-opacity:1;stroke:none;stroke-width:0.26458332"
       x="17.051218"
       y="9.6718283"
       id="text1430"><tspan
         sodipodi:role="line"
         id="tspan1428"
         x="17.051218"
         y="9.6718283"
         style="font-style:normal;font-variant:normal;font-weight:normal;font-stretch:normal;font-family:Uroob;-inkscape-font-specification:Uroob;letter-spacing:3.8920207px;fill:#d5fff6;stroke-width:0.26458332">ANACASE</tspan></text>
    <path
       style="fill:#008066;stroke:none;stroke-width:0.47643444;stroke-linecap:butt;stroke-linejoin:miter;stroke-opacity:1"
       d="M 2.1166666,29.633325 -1.6333312e-7,27.516652 v 14.816683 2.11665 L 2.1166666,42.333335"
       id="path1432"
       inkscape:connector-curvature="0"
       sodipodi:nodetypes="ccccc" />
    <path
       sodipodi:nodetypes="ccccc"
       inkscape:connector-curvature="0"
       id="path1434"
       d="m 29.633332,16.933337 2.116673,-2.116667 h -14.816683 -2.11665 l 2.11665,2.116667"
       style="fill:#008066;stroke:none;stroke-width:0.47643444;stroke-linecap:butt;stroke-linejoin:miter;stroke-opacity:1" />
    <path
       style="fill:#008066;stroke:none;stroke-width:0.47643444;stroke-linecap:butt;stroke-linejoin:miter;stroke-opacity:1"
       d="M 110.06666,2.1166706 112.18333,3.5666666e-6 H 97.366651 95.250001 L 97.366651,2.1166706"
       id="path1436"
       inkscape:connector-curvature="0"
       sodipodi:nodetypes="ccccc" />
    <path
       sodipodi:nodetypes="ccccc"
       inkscape:connector-curvature="0"
       id="path1438"
       d="M 186.26666,2.1166706 188.38333,3.5333332e-6 H 173.56665 171.45 L 173.56665,2.1166706"
       style="fill:#008066;stroke:none;stroke-width:0.47643444;stroke-linecap:butt;stroke-linejoin:miter;stroke-opacity:1" />
    <path
       sodipodi:nodetypes="ccccc"
       inkscape:connector-curvature="0"
       id="path1440"
       d="m 209.54999,31.750002 2.11667,2.116673 v -14.816683 -2.11665 l -2.11667,2.11665"
       style="fill:#008066;stroke:none;stroke-width:0.47643444;stroke-linecap:butt;stroke-linejoin:miter;stroke-opacity:1" />
    <path
       style="fill:#008066;stroke:none;stroke-width:0.47643444;stroke-linecap:butt;stroke-linejoin:miter;stroke-opacity:1"
       d="m 209.54999,107.95 2.11667,2.11667 v -14.816681 -2.11665 l -2.11667,2.11665"
       id="path1442"
       inkscape:connector-curvature="0"
       sodipodi:nodetypes="ccccc" />
    <path
       sodipodi:nodetypes="ccccc"
       inkscape:connector-curvature="0"
       id="path1444"
       d="M 25.39999,124.88333 23.28332,127 h 14.816678 2.11665 l -2.11665,-2.11667"
       style="fill:#008066;stroke:none;stroke-width:0.47643444;stroke-linecap:butt;stroke-linejoin:miter;stroke-opacity:1" />
    <path
       style="fill:#008066;stroke:none;stroke-width:0.47643444;stroke-linecap:butt;stroke-linejoin:miter;stroke-opacity:1"
       d="M 158.74998,124.88333 156.63331,127 h 14.81668 2.11665 l -2.11665,-2.11667"
       id="path1446"
       inkscape:connector-curvature="0"
       sodipodi:nodetypes="ccccc" />
  </g>
  <g
     inkscape:groupmode="layer"
     id="layer4"
     inkscape:label="bag"
     style="display:inline" />
  <g
     inkscape:groupmode="layer"
     id="layer3"
     inkscape:label="text"
     style="display:inline">
    <text
       xml:space="preserve"
       style="font-style:normal;font-variant:normal;font-weight:normal;font-stretch:normal;font-size:8.60031223px;line-height:1.25;font-family:Ubuntu;-inkscape-font-specification:Ubuntu;letter-spacing:0px;word-spacing:0px;fill:#aaffee;fill-opacity:1;stroke:none;stroke-width:0.21500783"
       x="171.33208"
       y="15.045011"
       id="text1108"><tspan
         sodipodi:role="line"
         id="tspan1106"
         x="171.33208"
         y="15.045011"
         style="font-style:normal;font-variant:normal;font-weight:normal;font-stretch:normal;font-family:Uroob;-inkscape-font-specification:Uroob;fill:#aaffee;stroke-width:0.21500783"
         transform="translate(3.2911867)">MODE</tspan></text>
    <text
       id="text1112"
       y="34.395275"
       x="171.54488"
       style="font-style:normal;font-variant:normal;font-weight:normal;font-stretch:normal;font-size:8.60031223px;line-height:1.25;font-family:Ubuntu;-inkscape-font-specification:Ubuntu;letter-spacing:0px;word-spacing:0px;fill:#aaffee;fill-opacity:1;stroke:none;stroke-width:0.21500783"
       xml:space="preserve"><tspan
         style="font-style:normal;font-variant:normal;font-weight:normal;font-stretch:normal;font-family:Uroob;-inkscape-font-specification:Uroob;fill:#aaffee;stroke-width:0.21500783"
         y="34.395275"
         x="171.54488"
         id="tspan1110"
         sodipodi:role="line"
         transform="translate(2.7263924)">CALIBRATE</tspan></text>
    <text
       xml:space="preserve"
       style="font-style:normal;font-variant:normal;font-weight:normal;font-stretch:normal;font-size:8.60031223px;line-height:1.25;font-family:Ubuntu;-inkscape-font-specification:Ubuntu;letter-spacing:0px;word-spacing:0px;fill:#aaffee;fill-opacity:1;stroke:none;stroke-width:0.21500783"
       x="170.90646"
       y="55.138519"
       id="text1116"><tspan
         sodipodi:role="line"
         id="tspan1114"
         x="170.90646"
         y="55.138519"
         style="font-style:normal;font-variant:normal;font-weight:normal;font-stretch:normal;font-family:Uroob;-inkscape-font-specification:Uroob;fill:#aaffee;stroke-width:0.21500783"
         transform="translate(1.2504727)">RESET</tspan></text>
    <text
       xml:space="preserve"
       style="font-style:normal;font-variant:normal;font-weight:normal;font-stretch:normal;font-size:8.60031223px;line-height:1.25;font-family:Ubuntu;-inkscape-font-specification:Ubuntu;letter-spacing:0px;word-spacing:0px;fill:#aaffee;fill-opacity:1;stroke:none;stroke-width:0.21500783"
       x="170.90227"
       y="73.972336"
       id="text1116-3"><tspan
         sodipodi:role="line"
         id="tspan1114-6"
         x="170.90227"
         y="73.972336"
         style="font-style:normal;font-variant:normal;font-weight:normal;font-stretch:normal;font-family:Uroob;-inkscape-font-specification:Uroob;fill:#aaffee;stroke-width:0.21500783">STATS</tspan></text>
    <text
       id="text1148"
       y="92.941238"
       x="170.90646"
       style="font-style:normal;font-variant:normal;font-weight:normal;font-stretch:normal;font-size:8.60031223px;line-height:1.25;font-family:Ubuntu;-inkscape-font-specification:Ubuntu;letter-spacing:0px;word-spacing:0px;fill:#aaffee;fill-opacity:1;stroke:none;stroke-width:0.21500783"
       xml:space="preserve"><tspan
         style="font-style:normal;font-variant:normal;font-weight:normal;font-stretch:normal;font-family:Uroob;-inkscape-font-specification:Uroob;fill:#aaffee;stroke-width:0.21500783"
         y="92.941238"
         x="170.90646"
         id="tspan1146"
         sodipodi:role="line"
         transform="translate(3.988349)">QUIT</tspan></text>
  </g>
</svg>
